<mxfile host="app.diagrams.net" modified="2021-04-27T14:22:16.905Z" agent="5.0 (X11; Linux x86_64) AppleWebKit/537.36 (KHTML, like Gecko) Chrome/90.0.4430.93 Safari/537.36" etag="oxw4vIwyYssn0bnox8Mx" version="14.6.6" type="github">
  <diagram id="24cisC7Wpoj3vlsTPfId" name="Page-1">
    <mxGraphModel dx="1662" dy="833" grid="1" gridSize="10" guides="1" tooltips="1" connect="1" arrows="1" fold="1" page="1" pageScale="1" pageWidth="850" pageHeight="1100" math="0" shadow="0">
      <root>
        <mxCell id="0" />
        <mxCell id="1" parent="0" />
        <UserObject label="Actor" lucidchartObjectId="WICwDF3WhlNE" id="rmpotrHX1EqBgF3IJLUR-1">
          <mxCell style="html=1;overflow=block;blockSpacing=1;whiteSpace=wrap;shape=umlActor;labelPosition=center;verticalLabelPosition=bottom;verticalAlign=top;whiteSpace=nowrap;whiteSpace=wrap;fontSize=16.7;fontColor=#333333;spacing=0;strokeColor=#5e5e5e;strokeOpacity=100;rounded=1;absoluteArcSize=1;arcSize=9;strokeWidth=2.3;" parent="1" vertex="1">
            <mxGeometry x="195" y="30" width="60" height="105" as="geometry" />
          </mxCell>
        </UserObject>
        <UserObject label="User Interface" lucidchartObjectId="bJCwDNufWrFP" id="rmpotrHX1EqBgF3IJLUR-2">
          <mxCell style="html=1;overflow=block;blockSpacing=1;whiteSpace=wrap;;whiteSpace=wrap;fontSize=16.7;fontColor=#333333;spacing=3.8;strokeColor=#5e5e5e;strokeOpacity=100;rounded=1;absoluteArcSize=1;arcSize=9;strokeWidth=2.3;" parent="1" vertex="1">
            <mxGeometry x="540" y="45" width="120" height="60" as="geometry" />
          </mxCell>
        </UserObject>
        <UserObject label="Vision Server" lucidchartObjectId="iJCwOBXdmEqn" id="rmpotrHX1EqBgF3IJLUR-3">
          <mxCell style="html=1;overflow=block;blockSpacing=1;whiteSpace=wrap;;whiteSpace=wrap;fontSize=16.7;fontColor=#333333;spacing=3.8;strokeColor=#5e5e5e;strokeOpacity=100;rounded=1;absoluteArcSize=1;arcSize=9;strokeWidth=2.3;" parent="1" vertex="1">
            <mxGeometry x="915" y="45" width="120" height="60" as="geometry" />
          </mxCell>
        </UserObject>
        <UserObject label="" lucidchartObjectId="bMCw8huAB6or" id="rmpotrHX1EqBgF3IJLUR-4">
          <mxCell style="html=1;jettySize=18;whiteSpace=wrap;fontSize=13;strokeOpacity=100;dashed=1;fixDash=1;strokeWidth=1.5;rounded=0;startArrow=none;;endArrow=none;;exitX=0.481;exitY=0.421;exitPerimeter=0;" parent="1" source="rmpotrHX1EqBgF3IJLUR-1" edge="1">
            <mxGeometry width="100" height="100" relative="1" as="geometry">
              <Array as="points" />
              <mxPoint x="224" y="750" as="targetPoint" />
            </mxGeometry>
          </mxCell>
        </UserObject>
        <UserObject label="" lucidchartObjectId="oMCwKWwP8npc" id="rmpotrHX1EqBgF3IJLUR-5">
          <mxCell style="html=1;jettySize=18;whiteSpace=wrap;fontSize=13;strokeOpacity=100;dashed=1;fixDash=1;strokeWidth=1.5;rounded=0;startArrow=none;;endArrow=none;;exitX=0.5;exitY=1.019;exitPerimeter=0;" parent="1" source="rmpotrHX1EqBgF3IJLUR-2" edge="1">
            <mxGeometry width="100" height="100" relative="1" as="geometry">
              <Array as="points" />
              <mxPoint x="600" y="751" as="targetPoint" />
            </mxGeometry>
          </mxCell>
        </UserObject>
        <UserObject label="" lucidchartObjectId="XMCw8LblpB6_" id="rmpotrHX1EqBgF3IJLUR-6">
          <mxCell style="html=1;jettySize=18;whiteSpace=wrap;fontSize=13;strokeOpacity=100;dashed=1;fixDash=1;strokeWidth=1.5;rounded=0;startArrow=none;;endArrow=none;;exitX=0.5;exitY=1.019;exitPerimeter=0;" parent="1" source="rmpotrHX1EqBgF3IJLUR-3" edge="1">
            <mxGeometry width="100" height="100" relative="1" as="geometry">
              <Array as="points" />
              <mxPoint x="975" y="748" as="targetPoint" />
            </mxGeometry>
          </mxCell>
        </UserObject>
        <UserObject label="" lucidchartObjectId="GiPwn-Zw1NN2" id="rmpotrHX1EqBgF3IJLUR-7">
          <mxCell style="html=1;jettySize=18;whiteSpace=wrap;fontSize=13;strokeOpacity=100;strokeWidth=1.5;rounded=0;startArrow=none;;endArrow=block;endFill=1;;entryX=-0.037;entryY=0.04;entryPerimeter=0;" parent="1" target="rmpotrHX1EqBgF3IJLUR-26" edge="1">
            <mxGeometry width="100" height="100" relative="1" as="geometry">
              <Array as="points" />
              <mxPoint x="224" y="195" as="sourcePoint" />
            </mxGeometry>
          </mxCell>
        </UserObject>
        <UserObject label="Upload Media" lucidchartObjectId="YiPwF3__YjJg" id="rmpotrHX1EqBgF3IJLUR-8">
          <mxCell style="html=1;overflow=block;blockSpacing=1;whiteSpace=wrap;;whiteSpace=wrap;fontSize=16.7;fontColor=#333333;spacing=3.8;strokeOpacity=0;fillOpacity=0;rounded=1;absoluteArcSize=1;arcSize=9;fillColor=#ffffff;dashed=1;fixDash=1;strokeWidth=2.3;" parent="1" vertex="1">
            <mxGeometry x="300" y="165" width="180" height="45" as="geometry" />
          </mxCell>
        </UserObject>
        <UserObject label="" lucidchartObjectId="IjPwA0_d9an-" id="rmpotrHX1EqBgF3IJLUR-9">
          <mxCell style="html=1;jettySize=18;whiteSpace=wrap;fontSize=13;strokeOpacity=100;strokeWidth=1.5;rounded=0;startArrow=none;;endArrow=block;endFill=1;;entryX=-0.037;entryY=0.04;entryPerimeter=0;" parent="1" target="rmpotrHX1EqBgF3IJLUR-27" edge="1">
            <mxGeometry width="100" height="100" relative="1" as="geometry">
              <Array as="points" />
              <mxPoint x="600" y="280" as="sourcePoint" />
            </mxGeometry>
          </mxCell>
        </UserObject>
        <UserObject label="Upload Image" lucidchartObjectId="kkPwXLHeUiHL" id="rmpotrHX1EqBgF3IJLUR-10">
          <mxCell style="html=1;overflow=block;blockSpacing=1;whiteSpace=wrap;;whiteSpace=wrap;fontSize=16.7;fontColor=#333333;spacing=3.8;strokeOpacity=0;fillOpacity=0;rounded=1;absoluteArcSize=1;arcSize=9;fillColor=#ffffff;dashed=1;fixDash=1;strokeWidth=2.3;" parent="1" vertex="1">
            <mxGeometry x="705" y="255" width="180" height="30" as="geometry" />
          </mxCell>
        </UserObject>
        <UserObject label="" lucidchartObjectId="-oPw3J-q7vaL" id="rmpotrHX1EqBgF3IJLUR-12">
          <mxCell style="html=1;jettySize=18;whiteSpace=wrap;fontSize=13;strokeOpacity=100;dashed=1;fixDash=1;strokeWidth=1.5;rounded=0;startArrow=none;;endArrow=block;endFill=1;;" parent="1" edge="1">
            <mxGeometry width="100" height="100" relative="1" as="geometry">
              <Array as="points" />
              <mxPoint x="600" y="314" as="sourcePoint" />
              <mxPoint x="224" y="314" as="targetPoint" />
            </mxGeometry>
          </mxCell>
        </UserObject>
        <UserObject label="msg: Enhancing The Image" lucidchartObjectId="HpPwydOaiiu9" id="rmpotrHX1EqBgF3IJLUR-13">
          <mxCell style="html=1;overflow=block;blockSpacing=1;whiteSpace=wrap;;whiteSpace=wrap;fontSize=16.7;fontColor=#333333;spacing=3.8;strokeOpacity=0;fillOpacity=0;rounded=1;absoluteArcSize=1;arcSize=9;fillColor=#ffffff;dashed=1;fixDash=1;strokeWidth=2.3;" parent="1" vertex="1">
            <mxGeometry x="263" y="280" width="255" height="48" as="geometry" />
          </mxCell>
        </UserObject>
        <UserObject label="" lucidchartObjectId=".qPwgQwJt_6P" id="rmpotrHX1EqBgF3IJLUR-14">
          <mxCell style="html=1;jettySize=18;whiteSpace=wrap;fontSize=13;strokeOpacity=100;strokeWidth=1.5;rounded=0;startArrow=none;;endArrow=block;endFill=1;;entryX=1.038;entryY=0.454;entryPerimeter=0;" parent="1" target="rmpotrHX1EqBgF3IJLUR-26" edge="1">
            <mxGeometry width="100" height="100" relative="1" as="geometry">
              <Array as="points" />
              <mxPoint x="975" y="350" as="sourcePoint" />
            </mxGeometry>
          </mxCell>
        </UserObject>
        <UserObject label="Sent the Enhanced Image" lucidchartObjectId="isPwGqkqeU7s" id="rmpotrHX1EqBgF3IJLUR-15">
          <mxCell style="html=1;overflow=block;blockSpacing=1;whiteSpace=wrap;;whiteSpace=wrap;fontSize=16.7;fontColor=#333333;spacing=3.8;strokeOpacity=0;fillOpacity=0;rounded=1;absoluteArcSize=1;arcSize=9;fillColor=#ffffff;dashed=1;fixDash=1;strokeWidth=2.3;" parent="1" vertex="1">
            <mxGeometry x="683" y="315" width="225" height="48" as="geometry" />
          </mxCell>
        </UserObject>
        <UserObject label="" lucidchartObjectId="mtPwUlx5e-1R" id="rmpotrHX1EqBgF3IJLUR-16">
          <mxCell style="html=1;jettySize=18;whiteSpace=wrap;fontSize=13;strokeOpacity=100;strokeWidth=1.5;rounded=0;startArrow=none;;endArrow=block;endFill=1;;entryX=-0.037;entryY=0.687;entryPerimeter=0;" parent="1" target="rmpotrHX1EqBgF3IJLUR-27" edge="1">
            <mxGeometry width="100" height="100" relative="1" as="geometry">
              <Array as="points" />
              <mxPoint x="600" y="445" as="sourcePoint" />
            </mxGeometry>
          </mxCell>
        </UserObject>
        <UserObject label="Upload Video as multible parts" lucidchartObjectId="mtPwh6EaKn2k" id="rmpotrHX1EqBgF3IJLUR-17">
          <mxCell style="html=1;overflow=block;blockSpacing=1;whiteSpace=wrap;;whiteSpace=wrap;fontSize=16.7;fontColor=#333333;spacing=3.8;strokeOpacity=0;fillOpacity=0;rounded=1;absoluteArcSize=1;arcSize=9;fillColor=#ffffff;dashed=1;fixDash=1;strokeWidth=2.3;" parent="1" vertex="1">
            <mxGeometry x="645" y="411" width="285" height="48" as="geometry" />
          </mxCell>
        </UserObject>
        <UserObject label="" lucidchartObjectId="mtPwFf7s1amb" id="rmpotrHX1EqBgF3IJLUR-18">
          <mxCell style="html=1;jettySize=18;whiteSpace=wrap;fontSize=13;strokeOpacity=100;dashed=1;fixDash=1;strokeWidth=1.5;rounded=0;startArrow=none;;endArrow=block;endFill=1;;" parent="1" edge="1">
            <mxGeometry width="100" height="100" relative="1" as="geometry">
              <Array as="points" />
              <mxPoint x="600" y="468" as="sourcePoint" />
              <mxPoint x="224" y="468" as="targetPoint" />
            </mxGeometry>
          </mxCell>
        </UserObject>
        <UserObject label="msg: Enhancing The Video" lucidchartObjectId="mtPwv0i.GoNI" id="rmpotrHX1EqBgF3IJLUR-19">
          <mxCell style="html=1;overflow=block;blockSpacing=1;whiteSpace=wrap;;whiteSpace=wrap;fontSize=16.7;fontColor=#333333;spacing=3.8;strokeOpacity=0;fillOpacity=0;rounded=1;absoluteArcSize=1;arcSize=9;fillColor=#ffffff;dashed=1;fixDash=1;strokeWidth=2.3;" parent="1" vertex="1">
            <mxGeometry x="263" y="435" width="255" height="48" as="geometry" />
          </mxCell>
        </UserObject>
        <UserObject label="" lucidchartObjectId="mtPwtDxaUw.a" id="rmpotrHX1EqBgF3IJLUR-20">
          <mxCell style="html=1;jettySize=18;whiteSpace=wrap;fontSize=13;strokeOpacity=100;strokeWidth=1.5;rounded=0;startArrow=none;;endArrow=block;endFill=1;;entryX=1.038;entryY=0.876;entryPerimeter=0;" parent="1" target="rmpotrHX1EqBgF3IJLUR-26" edge="1">
            <mxGeometry width="100" height="100" relative="1" as="geometry">
              <Array as="points" />
              <mxPoint x="975" y="509" as="sourcePoint" />
            </mxGeometry>
          </mxCell>
        </UserObject>
        <UserObject label="Sent the Enhanced Video" lucidchartObjectId="mtPwgTbxxCx_" id="rmpotrHX1EqBgF3IJLUR-21">
          <mxCell style="html=1;overflow=block;blockSpacing=1;whiteSpace=wrap;;whiteSpace=wrap;fontSize=16.7;fontColor=#333333;spacing=3.8;strokeOpacity=0;fillOpacity=0;rounded=1;absoluteArcSize=1;arcSize=9;fillColor=#ffffff;dashed=1;fixDash=1;strokeWidth=2.3;" parent="1" vertex="1">
            <mxGeometry x="683" y="472" width="225" height="48" as="geometry" />
          </mxCell>
        </UserObject>
        <UserObject label="" lucidchartObjectId="ABPwtytxxO7M" id="rmpotrHX1EqBgF3IJLUR-22">
          <mxCell style="html=1;jettySize=18;whiteSpace=wrap;fontSize=13;strokeOpacity=100;strokeWidth=1.5;rounded=0;startArrow=none;;endArrow=block;endFill=1;;" parent="1" edge="1">
            <mxGeometry width="100" height="100" relative="1" as="geometry">
              <Array as="points" />
              <mxPoint x="600" y="368" as="sourcePoint" />
              <mxPoint x="225" y="368" as="targetPoint" />
            </mxGeometry>
          </mxCell>
        </UserObject>
        <UserObject label="Download the enhanced image" lucidchartObjectId="ABPwrd2ZGjqE" id="rmpotrHX1EqBgF3IJLUR-23">
          <mxCell style="html=1;overflow=block;blockSpacing=1;whiteSpace=wrap;;whiteSpace=wrap;fontSize=16.7;fontColor=#333333;spacing=3.8;strokeOpacity=0;fillOpacity=0;rounded=1;absoluteArcSize=1;arcSize=9;fillColor=#ffffff;dashed=1;fixDash=1;strokeWidth=2.3;" parent="1" vertex="1">
            <mxGeometry x="288" y="333" width="252" height="47" as="geometry" />
          </mxCell>
        </UserObject>
        <UserObject label="" lucidchartObjectId="9CPwUS524xR-" id="rmpotrHX1EqBgF3IJLUR-24">
          <mxCell style="html=1;jettySize=18;whiteSpace=wrap;fontSize=13;strokeOpacity=100;strokeWidth=1.5;rounded=0;startArrow=none;;endArrow=block;endFill=1;;" parent="1" edge="1">
            <mxGeometry width="100" height="100" relative="1" as="geometry">
              <Array as="points" />
              <mxPoint x="600" y="545" as="sourcePoint" />
              <mxPoint x="225" y="545" as="targetPoint" />
            </mxGeometry>
          </mxCell>
        </UserObject>
        <UserObject label="Download the enhanced Video" lucidchartObjectId="9CPwXG9KzsGm" id="rmpotrHX1EqBgF3IJLUR-25">
          <mxCell style="html=1;overflow=block;blockSpacing=1;whiteSpace=wrap;;whiteSpace=wrap;fontSize=16.7;fontColor=#333333;spacing=3.8;strokeOpacity=0;fillOpacity=0;rounded=1;absoluteArcSize=1;arcSize=9;fillColor=#ffffff;dashed=1;fixDash=1;strokeWidth=2.3;" parent="1" vertex="1">
            <mxGeometry x="288" y="510" width="252" height="47" as="geometry" />
          </mxCell>
        </UserObject>
        <UserObject label="" lucidchartObjectId="xNVwiLBBCBZF" id="rmpotrHX1EqBgF3IJLUR-26">
          <mxCell style="html=1;overflow=block;blockSpacing=1;whiteSpace=wrap;;whiteSpace=wrap;fontSize=13;spacing=0;strokeOpacity=100;rounded=1;absoluteArcSize=1;arcSize=9;strokeWidth=2.3;" parent="1" vertex="1">
            <mxGeometry x="585" y="180" width="30" height="375" as="geometry" />
          </mxCell>
        </UserObject>
        <UserObject label="" lucidchartObjectId="kOVwmMGnAThj" id="rmpotrHX1EqBgF3IJLUR-27">
          <mxCell style="html=1;overflow=block;blockSpacing=1;whiteSpace=wrap;;whiteSpace=wrap;fontSize=13;spacing=0;strokeOpacity=100;rounded=1;absoluteArcSize=1;arcSize=9;strokeWidth=2.3;" parent="1" vertex="1">
            <mxGeometry x="960" y="270" width="30" height="255" as="geometry" />
          </mxCell>
        </UserObject>
        <UserObject label="Alternative" lucidchartObjectId="smPwMd1SJy7g" id="rmpotrHX1EqBgF3IJLUR-11">
          <mxCell style="html=1;overflow=block;blockSpacing=1;whiteSpace=wrap;shape=mxgraph.sysml.package2;xSize=90;overflow=fill;whiteSpace=wrap;fontSize=16.7;fontColor=#333333;align=left;spacing=0;strokeOpacity=100;rounded=1;absoluteArcSize=1;arcSize=9;strokeWidth=2.3;" parent="1" vertex="1">
            <mxGeometry x="60" y="240" width="1005" height="330" as="geometry" />
          </mxCell>
        </UserObject>
      </root>
    </mxGraphModel>
  </diagram>
</mxfile>
